# xmcd
#
# Track frame offsets:
#	150
#	14251
#	31562
#	47759
#	62874
#	77714
#	96599
#	115546
#	128769
#	150560
#	163119
#	178499
#	190134
#	205882
#	223212
#	238874
#	256233
#	270242
#	284534
#	300789
#	314585
#
# Disc length: 4398 seconds
#
# Revision: 1
# Processed by: cddbd v1.5.2PL0 Copyright (c) Steve Scherf et al.
# Submitted via: audiograbber 1.83.01
#
DISCID=26112c15
DTITLE=Polderpop 442 - Single Top 100 deel 442
DYEAR=2010
DGENRE=Pop
TTITLE0=John de Bever - Een vrolijk liedje
TTITLE1=Mooi Wark - We zingen en we springen in 't Oranje rond
TTITLE2=Jettie Pallettie - Suikerbossie
TTITLE3=Kleintje Pils - Sweet Caroline
TTITLE4=Tony Jordan - Stop, stop, stop
TTITLE5=Di-Rect - Hold on
TTITLE6=Elske DeWall - Away from you
TTITLE7=Jacqueline - Flame
TTITLE8=The Partysquad vs Afrojack - A Msterdamn
TTITLE9=Youp van 't Hek and Guus Meeuwis - Majesteit
TTITLE10=Jan Keizer and Anny Schilder - Take me to Ibiza
TTITLE11=La Fuente and Rosenberg Trio - Guitarra
TTITLE12=Jody Bernal - Dame to Veneno
TTITLE13=Peanuts - Het is te warm
TTITLE14=Bedroom Monkeys - Samen sterk
TTITLE15=Melody Stars - Samen sterk
TTITLE16=Savanna - Vlinders
TTITLE17=Edsel Juliet and La Banda Loca - Gezellig in de kring
TTITLE18=Albert West - Vol met vragen
TTITLE19=Alle 13 Jaanke - Playa
TTITLE20=Jee Kee Pee - Bonito
EXTD=
EXTT0=
EXTT1=
EXTT2=
EXTT3=
EXTT4=
EXTT5=
EXTT6=
EXTT7=
EXTT8=
EXTT9=
EXTT10=
EXTT11=
EXTT12=
EXTT13=
EXTT14=
EXTT15=
EXTT16=
EXTT17=
EXTT18=
EXTT19=
EXTT20=
PLAYORDER=
